<svg width="20" height="20" viewBox="0 0 20 20" fill="none" xmlns="http://www.w3.org/2000/svg">
<path d="M13.5909 3.58492C13.7763 3.39948 13.9964 3.25238 14.2387 3.15201C14.481 3.05165 14.7407 3 15.003 3C15.2652 3 15.5249 3.05165 15.7672 3.15201C16.0095 3.25238 16.2296 3.39948 16.4151 3.58492C16.6005 3.77036 16.7476 3.99051 16.848 4.2328C16.9483 4.47509 17 4.73478 17 4.99703C17 5.25928 16.9483 5.51897 16.848 5.76126C16.7476 6.00355 16.6005 6.2237 16.4151 6.40915L6.88331 15.9409L3 17L4.05909 13.1167L13.5909 3.58492Z" stroke="#4F4F56" stroke-width="1.5" stroke-linecap="round" stroke-linejoin="round"/>
</svg>
