<svg width="74" height="74" viewBox="0 0 74 74" fill="none" xmlns="http://www.w3.org/2000/svg">
<path d="M37 40.4C40.7555 40.4 43.8 37.3556 43.8 33.6C43.8 29.8445 40.7555 26.8 37 26.8C33.2444 26.8 30.2 29.8445 30.2 33.6C30.2 37.3556 33.2444 40.4 37 40.4Z" stroke="#FFFAF8" stroke-width="4.76" stroke-linecap="round" stroke-linejoin="round"/>
<path d="M54 60.8V57.4C54 55.5966 53.1045 53.867 51.5104 52.5917C49.9163 51.3165 47.7543 50.6 45.5 50.6H28.5C26.2457 50.6 24.0837 51.3165 22.4896 52.5917C20.8955 53.867 20 55.5966 20 57.4V60.8" stroke="#FFFAF8" stroke-width="4.76" stroke-linecap="round" stroke-linejoin="round"/>
<path d="M37 3L61.0416 12.9584L71 37L61.0416 61.0416L37 71L12.9584 61.0416L3 37L12.9584 12.9584L37 3Z" stroke="#FFFAF8" stroke-width="4.76"/>
</svg>
